<svg xmlns="http://www.w3.org/2000/svg" viewBox="0 0 1200 630" role="img" aria-labelledby="title desc">
  <title id="title">bilalarigun.com — Security • Windows Internals • LLM</title>
  <desc id="desc">A header graphic with a shield and code brackets, representing security and engineering.</desc>
  <defs>
    <linearGradient id="bg" x1="0" y1="0" x2="1" y2="1">
      <stop offset="0%" stop-color="#0b1220"/>
      <stop offset="100%" stop-color="#1f2937"/>
    </linearGradient>
    <linearGradient id="accent" x1="0" y1="0" x2="1" y2="0">
      <stop offset="0%" stop-color="#2337ff"/>
      <stop offset="100%" stop-color="#7289ff"/>
    </linearGradient>
    <filter id="soft" x="-20%" y="-20%" width="140%" height="140%">
      <feGaussianBlur in="SourceGraphic" stdDeviation="6" result="blur"/>
    </filter>
  </defs>

  <!-- Background -->
  <rect width="1200" height="630" fill="url(#bg)"/>

  <!-- Accent orbs -->
  <circle cx="1040" cy="120" r="110" fill="#2337ff" opacity="0.1"/>
  <circle cx="160" cy="520" r="140" fill="#7289ff" opacity="0.08"/>

  <!-- Shield emblem (centered) -->
  <g transform="translate(420,120)">
    <path d="M180 0l160 46v130c0 92-65 176-160 206C85 352 20 268 20 176V46L180 0z" fill="#0f172a" stroke="#3b82f6" stroke-width="3"/>
    <path d="M180 22l138 40v114c0 79-56 150-138 175c-82-25-138-96-138-175V62l138-40z" fill="#111827"/>
    <g transform="translate(120,95)">
      <path d="M0 60l40-40l-40-40" fill="none" stroke="url(#accent)" stroke-width="10" stroke-linecap="round" stroke-linejoin="round"/>
    </g>
    <g transform="translate(220,95)">
      <path d="M80 60l-40-40l40-40" fill="none" stroke="url(#accent)" stroke-width="10" stroke-linecap="round" stroke-linejoin="round"/>
    </g>
    <rect x="168" y="72" width="24" height="96" rx="6" fill="#2337ff"/>
  </g>

  <!-- Subtle circuitry lines (no text) -->
  <g opacity="0.12" stroke="#60a5fa" stroke-width="2" fill="none">
    <path d="M940 140c-40 0-60 20-60 60s-20 60-60 60"/>
    <circle cx="940" cy="140" r="4" fill="#60a5fa"/>
    <circle cx="820" cy="260" r="4" fill="#60a5fa"/>
  </g>
</svg>
